<?xml version="1.0" encoding="utf-8"?>
<!-- Generator: Adobe Illustrator 14.0.0, SVG Export Plug-In . SVG Version: 6.00 Build 43363)  -->
<!DOCTYPE svg PUBLIC "-//W3C//DTD SVG 1.1//EN" "http://www.w3.org/Graphics/SVG/1.1/DTD/svg11.dtd">
<svg version="1.1" xmlns="http://www.w3.org/2000/svg" xmlns:xlink="http://www.w3.org/1999/xlink" x="0px" y="0px" width="25px"
	 height="25px" viewBox="0 0 25 25" enable-background="new 0 0 25 25" xml:space="preserve">
<g id="Ebene_2">
</g>
<g id="Ebene_1">
	<path d="M17.5,5.5C17.224,5.5,17,5.724,17,6v5.115c-0.006-0.004-0.01-0.008-0.017-0.012L9.496,7.02
		C9.158,6.835,8.824,6.741,8.502,6.741C7.604,6.741,7,7.448,7,8.5v8c0,1.052,0.604,1.759,1.502,1.759
		c0.321,0,0.656-0.094,0.993-0.278l7.489-4.084c0.006-0.003,0.01-0.008,0.016-0.011V19c0,0.276,0.224,0.5,0.5,0.5S18,19.276,18,19V6
		C18,5.724,17.776,5.5,17.5,5.5z M16.505,13.02l-7.489,4.084c-0.186,0.102-0.364,0.155-0.514,0.155C8.049,17.259,8,16.729,8,16.5v-8
		c0-0.229,0.049-0.759,0.502-0.759c0.15,0,0.328,0.054,0.514,0.155l7.488,4.084c0.291,0.159,0.464,0.354,0.464,0.52
		S16.795,12.86,16.505,13.02z"/>
</g>
</svg>
