<?xml version="1.0" encoding="utf-8"?>
<!-- Generator: Adobe Illustrator 14.0.0, SVG Export Plug-In . SVG Version: 6.00 Build 43363)  -->
<!DOCTYPE svg PUBLIC "-//W3C//DTD SVG 1.1//EN" "http://www.w3.org/Graphics/SVG/1.1/DTD/svg11.dtd">
<svg version="1.1" xmlns="http://www.w3.org/2000/svg" xmlns:xlink="http://www.w3.org/1999/xlink" x="0px" y="0px" width="25px"
	 height="25px" viewBox="0 0 25 25" enable-background="new 0 0 25 25" xml:space="preserve">
<g id="Ebene_2">
</g>
<g id="Ebene_1">
	<g>
		<path d="M9,4.5H8C6.622,4.5,5.5,5.621,5.5,7v11c0,1.379,1.122,2.5,2.5,2.5h1c1.378,0,2.5-1.121,2.5-2.5V7
			C11.5,5.621,10.378,4.5,9,4.5z M10.5,18c0,0.827-0.673,1.5-1.5,1.5H8c-0.827,0-1.5-0.673-1.5-1.5V7c0-0.827,0.673-1.5,1.5-1.5h1
			c0.827,0,1.5,0.673,1.5,1.5V18z"/>
		<path d="M17,4.5h-1c-1.378,0-2.5,1.121-2.5,2.5v11c0,1.379,1.122,2.5,2.5,2.5h1c1.378,0,2.5-1.121,2.5-2.5V7
			C19.5,5.621,18.378,4.5,17,4.5z M18.5,18c0,0.827-0.673,1.5-1.5,1.5h-1c-0.827,0-1.5-0.673-1.5-1.5V7c0-0.827,0.673-1.5,1.5-1.5h1
			c0.827,0,1.5,0.673,1.5,1.5V18z"/>
	</g>
</g>
</svg>
