<?xml version="1.0" encoding="utf-8"?>
<!-- Generator: Adobe Illustrator 14.0.0, SVG Export Plug-In . SVG Version: 6.00 Build 43363)  -->
<!DOCTYPE svg PUBLIC "-//W3C//DTD SVG 1.1//EN" "http://www.w3.org/Graphics/SVG/1.1/DTD/svg11.dtd">
<svg version="1.1" xmlns="http://www.w3.org/2000/svg" xmlns:xlink="http://www.w3.org/1999/xlink" x="0px" y="0px" width="25px"
	 height="25px" viewBox="0 0 25 25" enable-background="new 0 0 25 25" xml:space="preserve">
<g id="Ebene_2">
</g>
<g id="Ebene_1">
	<path d="M16.999,11.104L9.511,7.02C9.174,6.835,8.839,6.741,8.518,6.741c-0.898,0-1.502,0.707-1.502,1.759v8
		c0,1.052,0.604,1.759,1.502,1.759c0.321,0,0.656-0.094,0.993-0.278L17,13.896c0.625-0.342,0.985-0.851,0.985-1.396
		S17.625,11.445,16.999,11.104z M16.521,13.02l-7.489,4.084c-0.186,0.102-0.364,0.155-0.514,0.155c-0.454,0-0.502-0.53-0.502-0.759
		v-8c0-0.229,0.049-0.759,0.502-0.759c0.15,0,0.328,0.054,0.514,0.155l7.488,4.084c0.291,0.159,0.464,0.354,0.464,0.52
		S16.811,12.86,16.521,13.02z"/>
</g>
</svg>
